<svg xmlns="http://www.w3.org/2000/svg" viewBox="0 0 26.416 24.119">
  <defs>
    <style>
      .a {
        fill: #d1d1cc;
      }
    </style>
  </defs>
  <path
    class="a"
    d="M3.446,4.946V1.5h2.3V4.946H9.188v2.3H5.743v3.446h-2.3V7.243H0v-2.3Zm3.446,6.891V8.391h3.446V4.946h8.04l2.1,2.3h3.641a2.3,2.3,0,0,1,2.3,2.3V23.322a2.3,2.3,0,0,1-2.3,2.3H5.743a2.3,2.3,0,0,1-2.3-2.3V11.837Zm8.04,10.337a5.743,5.743,0,1,0-5.743-5.743A5.745,5.745,0,0,0,14.931,22.173Zm-3.675-5.743a3.675,3.675,0,1,0,3.675-3.675A3.671,3.671,0,0,0,11.256,16.431Z"
    transform="translate(0 -1.5)"
  />
</svg>
