<svg
  xmlns="http://www.w3.org/2000/svg"
  viewBox="0 0 26.462 26.462"
>
  <defs>
    <style>
      .a {
        fill: #d1d1cc;
      }
    </style>
  </defs>
  <path
    class="a"
    d="M13.231.563A13.231,13.231,0,1,0,26.462,13.793,13.231,13.231,0,0,0,13.231.563Zm4.39,19.078c-.208.207-.426.424-.6.6a1.275,1.275,0,0,0-.329.571c-.081.3-.146.607-.254.9l-.928,2.5a10.662,10.662,0,0,1-2.275.25V23a3.994,3.994,0,0,0-1.207-2.734,1.707,1.707,0,0,1-.5-1.207V17.353a1.7,1.7,0,0,0-.878-1.492c-.767-.424-1.857-1.017-2.6-1.393a7.691,7.691,0,0,1-1.689-1.16l-.043-.038a6.124,6.124,0,0,1-.964-1.106c-.5-.735-1.316-1.943-1.845-2.728A10.728,10.728,0,0,1,9.007,4l1.281.641a.854.854,0,0,0,1.236-.763v-.6a10.662,10.662,0,0,1,1.3-.129l1.51,1.51a.854.854,0,0,1,0,1.207l-.25.25-.552.552a.427.427,0,0,0,0,.6l.25.25a.427.427,0,0,1,0,.6l-.427.427a.427.427,0,0,1-.3.125h-.48a.427.427,0,0,0-.3.121l-.529.515a.427.427,0,0,0-.084.5l.832,1.664a.427.427,0,0,1-.381.618h-.3a.426.426,0,0,1-.28-.1l-.5-.43a.855.855,0,0,0-.83-.165l-1.663.554a.638.638,0,0,0-.083,1.175l.591.3a3.613,3.613,0,0,0,1.617.382c.561,0,1.205,1.456,1.707,1.707h3.561a1.708,1.708,0,0,1,1.207.5l.73.73a1.627,1.627,0,0,1,.476,1.151,2.483,2.483,0,0,1-.732,1.759Zm4.626-4.874a1.281,1.281,0,0,1-.755-.532L20.533,12.8a1.279,1.279,0,0,1,0-1.42l1.045-1.567a1.279,1.279,0,0,1,.493-.435l.692-.346a10.336,10.336,0,0,1,1.04,6.128Z"
    transform="translate(0 -0.563)"
  />
</svg>
