<svg xmlns="http://www.w3.org/2000/svg" viewBox="0 0 26.193 25.185">
  <defs>
    <style>
      .a {
        fill: #d1d1cc;
      }
    </style>
  </defs>
  <path
    class="a"
    d="M22.516,3.938h-.063a7.164,7.164,0,0,0-5.981,3.274A7.164,7.164,0,0,0,10.49,3.938h-.063a7.119,7.119,0,0,0-7.052,7.115,15.326,15.326,0,0,0,3.01,8.355,52.742,52.742,0,0,0,10.087,9.715,52.742,52.742,0,0,0,10.087-9.715,15.326,15.326,0,0,0,3.01-8.355A7.119,7.119,0,0,0,22.516,3.938Z"
    transform="translate(-3.375 -3.938)"
  />
</svg>
