<svg xmlns="http://www.w3.org/2000/svg" width="49" height="49" viewBox="0 0 49 49"><defs><style>.a{fill:#dc4f41;}.b{fill:#fff;}</style></defs><g transform="translate(-0.295)"><circle class="a" cx="24.5" cy="24.5" r="24.5" transform="translate(0.295)"/><path class="b" d="M16.165,13.547v5.42H25.13c-.362,2.325-2.708,6.815-8.964,6.815a9.977,9.977,0,0,1,0-19.952,8.9,8.9,0,0,1,6.3,2.435l4.286-4.133A15.165,15.165,0,0,0,16.165,0a15.805,15.805,0,0,0,0,31.611c9.122,0,15.173-6.413,15.173-15.444a14.4,14.4,0,0,0-.249-2.62Z" transform="translate(9.054 8.525)"/></g></svg>