<svg xmlns="http://www.w3.org/2000/svg" width="245" height="262.022" viewBox="0 0 245 262.022"><defs><style>.a,.d{fill:#8fc63e;}.a,.b{font-size:101px;}.a{font-family:ZeutySans, Zeuty Sans;}.b,.c,.h{fill:#333;}.b{font-family:ZeutySansOutline-Outline, Zeuty Sans Outline;}.c{font-size:85px;font-family:ZeutyScript-Script, Zeuty Script;}.e{fill:#fff;}.f{fill:#d1d1cc;}.g{fill:#78a733;}</style></defs><g transform="translate(-53.725 -116.326)"><g transform="translate(52.725 215.613)"><g transform="translate(0 0)"><text class="a" transform="translate(3.653 76)"><tspan x="0" y="0">hidden</tspan></text><text class="b" transform="translate(1 76.115)"><tspan x="0" y="0">hidden</tspan></text><g transform="translate(27.037 77.722)"><text class="c" transform="translate(14.004 64.012)"><tspan x="0" y="0">places</tspan></text><text class="c" transform="translate(14.92 64.012)"><tspan x="0" y="0">places</tspan></text></g></g></g><g transform="translate(146.397 116.326)"><path class="d" d="M1028.485,271.734c-7.052,9.022-9.42,18.462-6.851,27.3,2.974,10.231,11.781,17.541,18.706,20,5.619,2,9.169,6.815,9.739,13.217.437,4.912-1.05,9.684-3.75,12.61a38.7,38.7,0,0,0,11.559-5.838c7-5.1,16.3-15.265,20.807-34.709,2.693-11.61.654-22.435-5.74-30.481A31.228,31.228,0,0,0,1048.768,262,25.18,25.18,0,0,0,1028.485,271.734Zm.028,20.753a21.731,21.731,0,1,1,21.731,21.73A21.756,21.756,0,0,1,1028.512,292.487Zm0,0a21.756,21.756,0,0,1,21.731-21.731" transform="translate(-1019.326 -260.704)"/><path class="e" d="M1058.928,281.559a20.434,20.434,0,1,1-20.434,20.434A20.457,20.457,0,0,1,1058.928,281.559Z" transform="translate(-1028.011 -270.21)"/><path class="f" d="M1058.783,320.795a20.423,20.423,0,0,0,15.14-34.141,20.426,20.426,0,1,1-25.131,31.522A20.3,20.3,0,0,0,1058.783,320.795Z" transform="translate(-1033.016 -272.686)"/><path class="g" d="M1079.5,336.2a47.727,47.727,0,0,0,2.955-4.259,54,54,0,0,0,7.815-24.484,21.706,21.706,0,0,0-9.852-35.894q-.545-.8-1.116-1.588a36.133,36.133,0,0,0-7.658-7.943c.472-.024.947-.038,1.426-.038a31.228,31.228,0,0,1,24.186,11.837c6.394,8.046,8.433,18.871,5.74,30.481-4.509,19.444-13.8,29.607-20.807,34.709a38.7,38.7,0,0,1-11.56,5.838c.105-.114.205-.235.306-.355A43.768,43.768,0,0,0,1079.5,336.2Z" transform="translate(-1043.631 -260.704)"/><path class="e" d="M1050.078,333.23c-.57-6.4-4.12-11.219-9.739-13.217-6.925-2.462-15.732-9.771-18.706-20-2.569-8.841-.2-18.282,6.851-27.3a24.869,24.869,0,0,1,12.828-8.7c-6.191,3.193-14.477,9.378-17.407,20.407-4.9,18.448,4.9,26.422,11.242,30.555,6.63,4.323,12.972,6.341,15.277,11.242s4.487,13.9-4.1,19.631C1049.027,342.914,1050.515,338.143,1050.078,333.23Z" transform="translate(-1019.326 -261.677)"/><path class="h" d="M1042.473,345.577a.649.649,0,0,1-.257-1.245c3.649-2.128,5.842-7.538,5.34-13.188-.523-5.875-3.76-10.288-8.881-12.109-7.226-2.569-16.415-10.193-19.516-20.863-2.691-9.257-.244-19.1,7.075-28.464a26.451,26.451,0,0,1,21.305-10.232,32.537,32.537,0,0,1,25.2,12.327c6.645,8.362,8.772,19.578,5.988,31.582-4.609,19.876-14.166,30.282-21.372,35.511-7.842,5.691-14.51,6.638-14.789,6.675a.553.553,0,0,1-.087.006Zm-15.218-75.07c-7.052,9.022-9.42,18.463-6.851,27.3,2.974,10.231,11.781,17.54,18.706,20,5.619,2,9.168,6.815,9.739,13.216.437,4.912-1.051,9.684-3.75,12.61a38.7,38.7,0,0,0,11.56-5.838c7-5.1,16.3-15.265,20.807-34.709,2.693-11.61.654-22.435-5.74-30.481a31.229,31.229,0,0,0-24.187-11.837A25.18,25.18,0,0,0,1027.255,270.508Z" transform="translate(-1018.097 -259.477)"/><g transform="translate(9.186 10.052)"><path class="h" d="M1035.97,300.766A21.731,21.731,0,1,1,1057.7,322.5,21.756,21.756,0,0,1,1035.97,300.766Zm1.3,0a20.434,20.434,0,1,0,20.433-20.434A20.457,20.457,0,0,0,1037.267,300.766Z" transform="translate(-1035.97 -279.035)"/></g></g></g></svg>