<?xml version="1.0" encoding="utf-8"?>
<!-- Generator: Adobe Illustrator 24.0.0, SVG Export Plug-In . SVG Version: 6.00 Build 0)  -->
<svg version="1.1" id="Layer_1" xmlns="http://www.w3.org/2000/svg" xmlns:xlink="http://www.w3.org/1999/xlink" x="0px" y="0px"
	 viewBox="0 0 261.6 290.7" style="enable-background:new 0 0 261.6 290.7;" xml:space="preserve">
<style type="text/css">
	.st0{fill:#00C4CC;}
	.st1{fill:#333333;}
	.st2{fill:#FFFFFF;}
	.st3{fill:#D1D1CC;}
	.st4{opacity:0.3;fill:#333333;enable-background:new    ;}
</style>
<title>logo</title>
<g>
	<g>
		<path class="st0" d="M20.7,215.8H7.4v-97h13.4v43.2h9.6v-43.2h13.4v97H30.3v-43.3h-9.6V215.8z"/>
		<path class="st0" d="M70.8,215.8H57.3v-97h13.4v97H70.8z"/>
		<path class="st0" d="M102.4,215.8H84.4v-97h18c6.5,0,9.6,0.9,13.1,3.6c3.3,2.4,5.2,6.2,5.1,10.1v69.3c0.1,4-1.8,7.7-5.1,10
			C112,214.6,108.3,215.8,102.4,215.8z M97.9,206.7h4.4c1.2,0,2.3-0.4,3.2-1.1c0.8-0.5,1.2-1.4,1.2-2.4v-71.8c0-1-0.4-1.8-1.2-2.4
			c-0.9-0.8-2.1-1.1-3.2-1.1h-4.4V206.7z"/>
		<path class="st0" d="M149.5,215.8h-18v-97h18c6.5,0,9.6,0.9,13.1,3.6c3.3,2.4,5.2,6.2,5.2,10.1v69.3c0,4-1.8,7.7-5.2,10
			C159.2,214.6,155.4,215.8,149.5,215.8z M145,206.7h4.4c1.2,0,2.3-0.4,3.2-1.1c0.8-0.5,1.2-1.4,1.2-2.4v-71.8c0-1-0.4-1.8-1.2-2.4
			c-0.9-0.8-2.1-1.1-3.2-1.1H145V206.7z"/>
		<path class="st0" d="M206.4,215.8h-26.7v-97h26.7v10.6h-13.3v32.7h8.9v10.6h-8.9v32.6h13.3V215.8z"/>
		<path class="st0" d="M255.6,215.8h-13.4l-8.9-42.5v42.5h-13.4v-97h13.4l8.9,42v-42h13.4V215.8z"/>
	</g>
</g>
<g>
	<g>
		<path class="st1" d="M27.1,161.2v-45.1h14.5v102.4H27.1v-45.1h-8.4v45.1H4V116h14.7v45.2H27.1z M28.3,117.2v45.1H17.6v-45.1H5.2
			v100.2h12.4v-45.1h10.7v45.1h12.3V117.2H28.3z"/>
		<path class="st1" d="M55.3,218.4V116h14.5v102.5H55.3z M56.4,117.2v100.2h12.4V117.2H56.4z"/>
		<path class="st1" d="M115.6,120c3.5,2.6,5.4,6.7,5.3,11.1v72.4c0.1,4.2-1.8,8.3-5.2,10.9c-1.7,1.4-3.8,2.5-5.9,3.2
			c-2.5,0.6-5,1-7.6,1H83.6V116.2h18.7c2.6-0.1,5.2,0.2,7.8,0.9C112,117.5,113.9,118.6,115.6,120z M119.9,131.1c0-1.7-0.3-3.5-1-5.1
			c-0.9-2.2-2.3-3.9-4-5.3c-1.6-1.3-3.3-2.3-5.3-2.8c-2.4-0.5-4.9-0.9-7.4-0.8H84.7v100.2h17.5c2.4,0,4.9-0.2,7.1-0.9
			c2.1-0.6,4-1.6,5.6-3c3.1-2.4,4.9-6,4.9-10v-72.3H119.9z M105.7,126.8c0.9,0.6,1.4,1.7,1.4,2.9v75c0,1.2-0.5,2.3-1.4,2.9
			c-1,0.9-2.3,1.3-3.5,1.2h-5.1v-83.1h5C103.4,125.6,104.6,126,105.7,126.8L105.7,126.8z M106.2,129.7c0-0.8-0.4-1.5-1.1-2.1
			c-0.8-0.6-1.8-1.1-2.9-1h-4v81h4c1.1,0,2.1-0.3,2.9-0.9c0.6-0.5,1.1-1.3,1.1-2.2V129.7z"/>
		<path class="st1" d="M163.9,120c3.5,2.6,5.4,6.7,5.3,11.1v72.4c0.1,4.2-1.8,8.3-5.2,10.9c-1.7,1.4-3.8,2.5-5.9,3.2
			c-2.5,0.6-5,1-7.6,1h-18.7V116.2h18.7c2.6-0.1,5.2,0.2,7.8,0.9C160.3,117.5,162.3,118.6,163.9,120z M168.2,131.1
			c0-1.7-0.3-3.5-1-5.1c-0.8-2.2-2.2-3.9-4-5.3c-1.6-1.3-3.3-2.3-5.3-2.8c-2.4-0.5-4.9-0.9-7.4-0.8h-17.6v100.2h17.6
			c2.4,0,4.9-0.2,7.1-0.9c2.1-0.6,4-1.6,5.6-3c3.1-2.4,4.9-6,4.9-10v-72.3H168.2z M154.1,126.8c0.9,0.6,1.4,1.7,1.4,2.9v75
			c0,1.2-0.5,2.3-1.4,2.9c-1,0.9-2.3,1.3-3.5,1.2h-5.1v-83.1h5C151.7,125.6,153,126,154.1,126.8L154.1,126.8z M154.5,129.7
			c0-0.8-0.4-1.5-1.1-2.1c-0.8-0.6-1.8-1.1-2.9-1h-4v81h4c1.1,0,2.1-0.3,2.9-0.9c0.6-0.5,1.1-1.3,1.1-2.2V129.7z"/>
		<path class="st1" d="M181.4,116.1h27.9v12.1h-13.4v33h8v12.1h-8v33h13.4v12.1h-27.9V116.1z M182.5,217.3h25.7v-10h-13.4v-35.1h8
			v-9.9h-8v-35.2h13.4v-10h-25.7V217.3z"/>
		<path class="st1" d="M244.2,155.3v-39.2h14.5v102.4h-14.4l-0.1-0.4l-7.9-39.2v39.6h-14.5V116h14.4L244.2,155.3z M245.3,117.2v48.6
			l-9.9-48.6H223v100.2h12.5v-49.1l9.8,49.1h12.4V117.2H245.3z"/>
	</g>
</g>
<g>
	<g>
		<path class="st1" d="M80.4,243.4c-4.1,2.1-8.4,3.8-12.7,5.2c-1.5,2.8-3.2,5.4-5.2,8c-1.3,1.7-3,3.2-4.9,4.3c-1,0.6-2.2,1.1-3.3,1
			c-1.6,0-3.1-0.6-4.2-1.8c-0.5-0.5-0.9-1.2-0.9-1.9c-0.1-2.7,0.8-5.4,2.4-7.6c1.1-1.3,2.4-2.2,4-2.7l1.6-0.5c0.2,0,1.7-0.5,4.1-1.4
			c0.4-0.2,0.9-0.3,1.5-0.6c0.1,0,0.2-0.1,0.2-0.3c1.5-2.6,2.6-5.3,3.2-8.2c0.1-0.8,0.2-1.4,0.2-2.2c0.1-0.2,0-0.2,0-0.5
			c-0.4,0.2-0.9,0.3-1.3,0.5c-1.4,0.6-2.7,1.5-4,2.4c-2.1,1.6-4,3.3-5.8,5.3c-5.7,5.9-10.7,12.6-14.7,19.9
			c-1.9,3.3-3.5,6.9-4.5,10.7c-0.4,1.6-0.9,3.2-1.2,5c-0.4,1.9-0.9,3.9-1.3,5.7c-0.1,0.4-0.4,0.9-0.9,1c-1.3,0.5-2.7,0.5-4,0.1
			c-0.1-0.1-0.2-0.2-0.2-0.2c-0.3-0.2-0.5-0.5-0.4-1c0.1-0.9,0.2-1.7,0.3-2.7c0.5-3.1,1.3-6.3,2.2-9.3c0.8-2.8,1.4-5.6,2.2-8.4
			c1.8-6.9,4.3-13.6,7.3-20.1c1.9-4.5,4.2-9,6.7-13.3c0.6-1.1,1.3-2.1,2.1-3c0.3-0.5,0.8-0.6,1.5-0.4c0.4,0.2,0.9,0.4,1.3,0.8
			c0.8,0.4,1.3,1.1,1.5,1.9c0.2,0.5,0.1,1.1-0.2,1.5c-0.9,1-1.6,2.2-2.2,3.3c-2.2,4-4,8-5.7,12.1v0.2c0.4-0.6,0.9-1.2,1.4-1.8
			c2.8-3.5,5.9-6.6,9.4-9.5c1.6-1.4,3.3-2.6,5.2-3.7c1.1-0.5,2.2-0.9,3.3-1c1.5-0.1,3,0.4,4.1,1.5c1.6,1.3,2.5,3.2,2.6,5.2
			c0,2.1-0.2,4.2-0.9,6.2c3.6-1.5,7-3.2,10.4-5.2C80.6,237.7,83.8,241.5,80.4,243.4z M59.7,251L59.7,251c-1.2,0.3-2.2,0.9-2.9,1.6
			c-0.6,1-1.2,2.1-1.6,3.1c-0.1,0.4-0.2,1-0.3,1.4C56.8,255.3,58.4,253.3,59.7,251L59.7,251z"/>
		<path class="st1" d="M111.4,244.2c-4.6,5.7-24.2,24.9-31.3,24.8c-1.2-0.2-2.4-0.4-3.6-0.9c-1.3-0.6-2.3-1.9-2.5-3.5
			c-0.2-1.7-0.2-3.3,0.1-5.1c0.6-3.7,1.6-7.3,2.8-10.9c1.2-4.1,2.6-8.2,4-12.2c1.6-4.3,3.6-8.4,5.6-12.5c2.4-5.2,5.2-10.4,7.8-15.5
			c1.3-2.5,2.7-4.9,4.1-7.2c0.1-0.2,0.2-0.4,0.3-0.6c0.1-0.2,0.3-0.4,0.6-0.3c0.3,0.1,0.6,0.1,0.9,0.2c1.3,0.5,2.3,1.6,2.7,2.9
			c0.1,0.5,0.1,1.2-0.2,1.6c-0.8,1.2-1.5,2.4-2.2,3.7l-3.3,6.4c-2.8,5.3-5.2,10.7-7.7,16c-2.7,6-5.1,12.3-6.9,18.7
			c-1,2.9-1.7,5.9-2.4,8.9c-0.4,2.3-0.4,4.6-0.2,7c0,0,22.6-18.9,29.7-27.9C109.9,237.7,115.4,239.5,111.4,244.2z"/>
		<path class="st1" d="M146,242.1c-0.8,1-13,14.6-14.3,15.5c-1.6,1.1-3.6,1.3-5.4,0.8c-0.9-0.2-1.7-0.5-2.4-1.1
			c-1.1-1-1.8-2.5-1.8-4v-2.5l-0.2,0.2c-1.7,1.7-3.6,3.2-5.6,4.5c-1,0.6-2.1,1.1-3.2,1.3c-2.3,0.3-4.4-0.4-6-2.1
			c-0.9-0.9-1.3-2.1-1.3-3.3c0-1.9,0.2-3.9,0.9-5.8c1.2-4.1,2.9-8.1,5.2-11.8c0.8-1.2,1.6-2.3,2.7-3.2c1.2-1,2.9-1.1,4.2-0.2
			c1.5,0.9,2.9,2.1,4,3.5c0.9,1.1,1.5,2.3,2.1,3.6c0.1,0,0.1,0.1,0.1,0.2c0.3-0.5,0.8-1,1-1.5c1.7-2.6,3.3-5.2,5.2-7.7
			c0.3-0.4,0.8-0.5,1.3-0.4c1,0.2,1.9,0.8,2.7,1.5c0.4,0.4,0.8,0.9,0.9,1.5c0.1,0.4,0,0.8-0.2,1.1c-2.2,3.7-4,7.6-5.6,11.6
			c-1.1,2.6-1.7,5.3-1.9,8c-0.1,0.9-0.1,1.6-0.1,2.5l16.2-16.6C144.1,237.6,147.6,239.6,146,242.1z M123.8,239.3
			c-0.3-0.2-0.9-0.3-1.2-0.5c-1.1-0.6-1.8-1.6-2.4-2.8l-0.9-1.4c-0.1,0-0.2,0.1-0.3,0.1c-0.1,0.1-0.3,0.2-0.4,0.3
			c-0.9,0.9-1.6,1.8-2.3,2.8c-1.7,3-3.1,6.4-4.1,9.7c-0.4,1.5-0.8,3.1-0.9,4.8c0,0.2,0.1,0.4,0.1,0.9c0.3-0.3,0.9-0.5,1.1-0.8
			c1.6-1.3,3-2.7,4.4-4.2c2.2-2.5,4.2-5.1,5.9-7.8L123.8,239.3z"/>
		<path class="st1" d="M172.9,242.3c-1.7,2.4-6.5,6.4-8,7.6c-2.7,2.2-5.6,4-8.9,5.5c-2.1,1-4.3,1.4-6.6,1.3c-2.7-0.1-5.2-1.3-7-3.2
			c-1.4-1.5-2.1-3.6-1.9-5.6c0.1-2.7,0.9-5.3,2.1-7.7c1.6-3.2,3.8-6.2,6.5-8.5c1.7-1.5,3.8-2.6,5.9-3.1c1.3-0.4,2.7-0.4,4,0
			c2.1,0.8,3.7,2.5,4.2,4.5c0.3,1.2,0.2,2.5-0.3,3.7c-0.6,1.4-1.4,2.8-2.4,4c-0.3,0.5-1.1,0.8-1.6,0.4c-0.8-0.3-1.5-0.9-2.1-1.5
			c-0.5-0.4-0.9-1.1-1-1.7c-0.1-0.3,0-0.8,0.3-1c0.9-1.1,1.5-2.3,2.2-3.6c0.1-0.2,0.2-0.3,0.3-0.5c-0.3,0.1-0.6,0.2-1,0.2
			c-1.9,0.8-3.7,1.8-5.1,3.3c-2.7,2.5-4.6,5.6-5.8,9.1c-0.5,1.6-0.8,3.2-0.6,4.9c0.1,0.9,0.3,1.6,0.9,2.3c0.2,0.3,0.6,0.5,1,0.5
			c1.2-0.1,2.5-0.4,3.6-1c2.5-0.9,4.9-2.2,7-3.8l13.8-10.9c1.4,1.1,1.6,3,0.6,4.4C173,242.2,173,242.3,172.9,242.3z"/>
		<path class="st1" d="M202.1,243c-2.1,2.4-6.7,6.8-6.7,6.8l-3.3,2.9c-2.3,1.9-4.8,3.5-7.4,4.6c-1.2,0.6-2.6,1-4,1
			c-1.5-0.1-3-0.6-4.3-1.4c-1.9-1.1-3.6-2.9-4.4-5c-1-2.2-1.5-4.5-1.5-6.9c0-3.3,1.1-6.6,3-9.3c2.1-2.6,4.6-4.6,7.7-6
			c1.8-1,3.7-1.6,5.7-2.1c2.6-0.5,5.2,0.4,6.6,2.7c1,1.1,1.2,2.7,0.4,4c-0.5,1.1-1.3,2.1-2.2,2.9c-1.5,1.7-3.2,3.3-5.2,4.6
			c-0.8,0.6-1.6,1.2-2.6,1.5c-1.4,0.5-2.9,0.5-4.2-0.2c-2.1-1.5-1.7-2.5-2.2-3.1c-1,1.7-1.7,3.6-1.9,5.5c-0.1,2.1,0.1,4,1,5.8
			c0.4,1.1,1,2.2,1.8,2.9c0.2,0.2,0.4,0.2,0.6,0.1c1.5-0.5,2.9-1.3,4.2-2.2c2.1-1.4,4-3,5.8-4.6c0.5-0.5,2.1-1.8,2.6-2.3l8.5-7.9
			C200.4,237.7,204.2,240.3,202.1,243z M177.9,239.8h1.5c1.1-0.3,2.2-0.8,3-1.5c1.9-1.5,3.7-3.2,5.3-5.2l0.2-0.3
			c0-0.1,0-0.1-0.1-0.1c-0.3,0.2-0.9,0.2-1.2,0.4c-2.4,1-4.5,2.4-6.5,4C179.4,238,178.7,238.8,177.9,239.8L177.9,239.8z"/>
		<path class="st1" d="M228.1,243.6c-3.6,2.7-15,9.1-15,9.1c0.4,1.7,0.5,3.5,0.4,5.2c-0.2,1.8-0.8,3.7-1.5,5.4
			c-1,1.8-2.2,3.6-3.7,5.1c-2.1,1.9-4.6,3.1-7.4,3.3c-1.9,0.3-3.9,0.1-5.6-0.8c-1.7-0.6-2.9-2.1-3.3-3.8c-0.3-1.5-0.1-3.1,0.6-4.5
			c0.9-1.5,1.9-2.9,3.2-4c1.6-1.6,3.3-3.1,5.3-4.4c1.8-1.3,3.9-2.6,5.8-3.9c0.3-0.2,0.3-0.1,0.2-0.4c-0.5-1.8-1.4-3.6-2.5-5.2
			c-1-1.5-2.3-2.5-3.3-4c-1-1.3-1.7-2.8-2.2-4.3c-0.3-1.5-0.1-3.1,0.5-4.5c0.8-1.6,1.8-3.2,3-4.5c2.6-2.9,5.6-5.4,9-7.3
			c1.3-0.8,2.7-1.3,4.1-1.6c1.9-0.4,3.9,0.2,5.3,1.6c0.6,0.5,1.1,1.3,1.2,2.2c0.3,1.6-1.1,3.1-1.9,4.9c-2.2,3.5-4.8,6.5-7.8,9.2
			c-1.1,0.9-2.3,1.7-3.5,2.5c-0.9,0.6-1.9,0.9-3,1c-0.3,0-0.3,0-0.5-0.1c2.1,2.6,3.9,5.3,5.6,8.2c0.3-0.3,16.5-10.1,16.5-10.1
			S231.7,241,228.1,243.6z M207.7,255.7c0-0.2,0-0.2-0.3,0c-2.1,1.3-4,2.8-5.8,4.3c-1.3,1-2.4,2.3-3.1,3.8c-0.6,0.9-0.9,1.9-0.8,2.9
			c0.1,0.8,0.3,1.4,0.9,1.9c0.2,0.3,0.6,0.4,1,0.3c0.9-0.2,1.7-0.6,2.4-1.2c0.9-0.8,1.6-1.6,2.4-2.6c1.4-2.2,2.5-4.5,3.1-7
			C207.6,257.4,207.7,256.5,207.7,255.7L207.7,255.7z M214.8,224.7L214.8,224.7c-0.3,0.1-0.4,0.3-0.6,0.3c-3,2.1-5.6,4.5-7.9,7.3
			c-0.6,0.9-1.2,1.8-1.5,2.8C208.7,232.5,212.2,228.9,214.8,224.7L214.8,224.7z"/>
	</g>
</g>
<g>
	<g>
		<path class="st1" d="M81.4,243.4c-4.1,2.1-8.4,3.8-12.7,5.2c-1.5,2.8-3.2,5.4-5.2,8c-1.3,1.7-3,3.2-4.9,4.3c-1,0.6-2.2,1.1-3.3,1
			c-1.6,0-3.1-0.6-4.2-1.8c-0.5-0.5-0.9-1.2-0.9-1.9c-0.1-2.7,0.8-5.4,2.4-7.6c1.1-1.3,2.4-2.2,4-2.7l1.6-0.5c0.2,0,1.7-0.5,4.1-1.4
			c0.4-0.2,0.9-0.3,1.5-0.6c0.1,0,0.3-0.1,0.3-0.3c1.5-2.6,2.6-5.3,3.2-8.2c0.1-0.8,0.2-1.4,0.3-2.2c0.1-0.2,0-0.2,0-0.5
			c-0.4,0.2-0.9,0.3-1.3,0.5c-1.4,0.6-2.7,1.5-4,2.4c-2.1,1.6-4,3.3-5.7,5.3C51,248.1,46,254.8,42,262c-1.9,3.3-3.5,7-4.6,10.7
			c-0.5,1.6-0.9,3.2-1.2,5c-0.4,1.9-0.9,3.9-1.3,5.8c-0.1,0.4-0.4,0.9-0.9,1c-1.3,0.5-2.7,0.5-4,0.1c-0.1-0.1-0.2-0.2-0.3-0.2
			c-0.3-0.2-0.5-0.5-0.4-1c0.1-0.9,0.2-1.7,0.3-2.7c0.5-3.1,1.2-6.3,2.2-9.3c0.8-2.8,1.4-5.6,2.2-8.4c1.8-6.9,4.3-13.6,7.3-20.1
			c1.9-4.5,4.2-9,6.7-13.3c0.6-1.1,1.3-2.1,2.1-3c0.3-0.5,0.8-0.6,1.5-0.4c0.4,0.2,0.9,0.4,1.3,0.8c0.8,0.4,1.3,1.1,1.6,1.9
			c0.2,0.5,0.1,1.1-0.3,1.5c-0.9,1-1.6,2.2-2.2,3.3c-2.2,4-4,8-5.8,12.1v0.2c0.4-0.6,0.9-1.2,1.4-1.8c2.8-3.5,5.9-6.7,9.4-9.5
			c1.6-1.4,3.3-2.6,5.2-3.7c1.1-0.5,2.2-0.9,3.3-1c1.5-0.1,3,0.4,4.1,1.5c1.6,1.3,2.5,3.2,2.6,5.2c0,2.1-0.2,4.2-0.9,6.2
			c3.6-1.5,7-3.3,10.4-5.3C81.4,237.7,84.7,241.5,81.4,243.4z M60.8,251L60.8,251c-1.2,0.3-2.2,0.9-2.9,1.6c-0.6,1-1.2,2.1-1.6,3.1
			c-0.1,0.4-0.2,1-0.2,1.4C57.8,255.3,59.4,253.3,60.8,251L60.8,251z"/>
		<path class="st1" d="M112.4,244.2c-4.6,5.7-24.2,24.9-31.3,24.8c-1.2-0.2-2.4-0.4-3.6-0.9c-1.3-0.6-2.3-1.9-2.5-3.3
			c-0.2-1.7-0.2-3.3,0.1-5.1c0.6-3.7,1.6-7.3,2.8-10.9c1.2-4.1,2.6-8.2,4-12.2c1.6-4.3,3.6-8.4,5.6-12.5c2.4-5.2,5.2-10.4,7.8-15.5
			c1.3-2.5,2.7-4.9,4.1-7.2c0.1-0.2,0.2-0.4,0.3-0.6c0.1-0.2,0.4-0.4,0.6-0.3c0.3,0.1,0.6,0.1,0.9,0.2c1.3,0.5,2.3,1.6,2.7,2.9
			c0.2,0.5,0.1,1.2-0.2,1.6c-0.8,1.2-1.5,2.4-2.2,3.7l-3.3,6.4c-2.8,5.3-5.2,10.7-7.7,16c-2.8,6-5.1,12.2-6.9,18.6
			c-1,2.9-1.7,5.9-2.4,8.9c-0.4,2.3-0.4,4.6-0.3,7c0,0,22.6-18.9,29.7-27.9C110.9,237.7,116.4,239.5,112.4,244.2z"/>
		<path class="st1" d="M147.1,242.1c-0.8,1-13,14.6-14.3,15.5c-2.5,1.4-5.5,1.3-7.8-0.3c-1.1-1-1.8-2.5-1.8-4v-2.5L123,251
			c-1.7,1.7-3.6,3.2-5.6,4.5c-1,0.6-2.1,1.1-3.2,1.3c-2.3,0.3-4.4-0.4-6-2.1c-0.9-0.9-1.3-2.1-1.3-3.3c0-1.9,0.2-3.9,0.9-5.8
			c1.2-4.1,3-8.1,5.3-11.8c0.8-1.2,1.6-2.3,2.7-3.2c1.2-1,2.9-1.1,4.2-0.2c1.5,0.9,2.9,2.1,4,3.5c0.9,1.1,1.5,2.3,2.1,3.6
			c0.1,0,0.1,0.1,0.1,0.2c0.3-0.5,0.8-1,1-1.5c1.7-2.6,3.5-5.2,5.2-7.7c0.3-0.4,0.8-0.5,1.3-0.4c1,0.2,1.9,0.8,2.7,1.5
			c0.4,0.4,0.8,0.9,1,1.5c0.1,0.4,0,0.8-0.3,1.1c-2.2,3.7-4,7.6-5.6,11.6c-1.1,2.6-1.7,5.3-1.9,8c-0.1,0.9-0.1,1.6-0.1,2.5
			l16.2-16.6C145.2,237.6,148.6,239.6,147.1,242.1z M124.8,239.3c-0.3-0.2-0.9-0.3-1.2-0.5c-1.1-0.6-1.8-1.6-2.4-2.8l-0.9-1.4
			c-0.1,0-0.2,0.1-0.2,0.1c-0.1,0.1-0.3,0.2-0.4,0.3c-0.9,0.9-1.6,1.8-2.3,2.8c-1.7,3-3.1,6.4-4.1,9.7c-0.4,1.5-0.8,3.1-0.9,4.8
			c0,0.2,0.1,0.4,0.1,0.9c0.3-0.3,0.9-0.5,1.1-0.8c1.6-1.3,3-2.7,4.4-4.2c2.2-2.5,4.2-5.1,5.9-7.8L124.8,239.3z"/>
		<path class="st1" d="M173.9,242.3c-1.7,2.4-6.5,6.4-8,7.6c-2.7,2.2-5.6,4-8.9,5.5c-2.1,1-4.3,1.4-6.6,1.3c-2.7-0.1-5.2-1.3-7-3.2
			c-1.4-1.5-2.1-3.6-1.9-5.6c0.1-2.7,0.9-5.3,2.2-7.7c1.5-3.2,3.8-6.2,6.4-8.5c1.7-1.5,3.7-2.6,5.9-3.1c1.3-0.4,2.7-0.4,4,0
			c2.1,0.8,3.7,2.5,4.2,4.5c0.3,1.2,0.2,2.5-0.3,3.7c-0.6,1.4-1.4,2.8-2.4,4c-0.3,0.5-1.1,0.8-1.6,0.4c-0.8-0.3-1.5-0.9-2.1-1.5
			c-0.5-0.4-0.9-1.1-1-1.7c-0.1-0.3,0-0.8,0.3-1c0.8-1.1,1.5-2.3,2.1-3.6c0.1-0.2,0.2-0.3,0.3-0.5c-0.3,0.1-0.6,0.2-1,0.2
			c-1.9,0.8-3.7,1.8-5.1,3.3c-2.6,2.5-4.6,5.6-5.8,9.1c-0.5,1.6-0.8,3.2-0.6,4.9c0.1,0.9,0.3,1.6,0.9,2.3c0.2,0.3,0.6,0.5,1,0.5
			c1.2-0.1,2.5-0.4,3.6-1c2.5-0.9,4.9-2.2,7-3.8l13.9-10.9c1.4,1,1.7,3,0.6,4.3C174,242.2,173.9,242.3,173.9,242.3z"/>
		<path class="st1" d="M203.1,243c-2.1,2.4-6.7,6.8-6.7,6.8l-3.3,2.9c-2.3,1.9-4.8,3.5-7.4,4.6c-1.2,0.6-2.6,1-4,1
			c-1.5-0.1-3-0.6-4.3-1.4c-1.9-1.1-3.6-2.9-4.4-5c-1-2.2-1.5-4.5-1.5-6.9c0-3.3,1.1-6.6,3-9.3c2.1-2.6,4.6-4.6,7.6-6
			c1.8-1,3.7-1.6,5.7-2.1c2.6-0.5,5.2,0.4,6.6,2.7c1,1.1,1.2,2.7,0.4,4c-0.5,1.1-1.3,2.1-2.1,2.9c-1.5,1.7-3.2,3.3-5.2,4.6
			c-0.8,0.6-1.6,1.2-2.6,1.5c-1.4,0.5-2.9,0.5-4.2-0.2c-2.1-1.5-1.7-2.5-2.2-3.1c-1,1.7-1.6,3.6-1.9,5.5c-0.1,2.1,0.1,4,1,5.8
			c0.4,1.1,1,2.2,1.8,2.9c0.2,0.2,0.4,0.2,0.6,0.1c1.5-0.5,2.9-1.3,4.2-2.2c2.1-1.5,4-3,5.8-4.8c0.5-0.5,2.1-1.8,2.6-2.3l8.5-7.9
			C201.4,237.6,205.1,240.3,203.1,243z M178.9,239.8h1.5c1.1-0.3,2.2-0.8,3-1.5c1.9-1.5,3.7-3.2,5.3-5.2l0.2-0.3
			c0-0.1,0-0.1-0.1-0.1c-0.3,0.2-0.9,0.2-1.2,0.4c-2.3,1-4.4,2.4-6.4,4C180.4,238,179.7,238.8,178.9,239.8L178.9,239.8z"/>
		<path class="st1" d="M229.1,243.6c-3.6,2.7-15,9.1-15,9.1c0.4,1.7,0.5,3.5,0.4,5.2c-0.2,1.8-0.8,3.7-1.5,5.4
			c-1,1.8-2.2,3.6-3.7,5.1c-2.1,1.9-4.6,3.1-7.4,3.3c-1.9,0.3-3.9,0.1-5.6-0.8c-1.7-0.6-2.9-2.1-3.3-3.8c-0.3-1.5-0.1-3.1,0.6-4.5
			c0.9-1.5,1.9-2.9,3.2-4c1.6-1.6,3.3-3.1,5.2-4.4c1.8-1.3,3.9-2.6,5.8-3.9c0.2-0.2,0.2-0.1,0.2-0.4c-0.5-1.8-1.4-3.6-2.5-5.2
			c-1-1.5-2.3-2.5-3.3-4c-1-1.3-1.6-2.8-2.1-4.3c-0.3-1.5-0.1-3.1,0.5-4.5c0.8-1.6,1.8-3.2,3-4.5c2.6-2.9,5.6-5.4,9-7.3
			c1.3-0.8,2.7-1.3,4.1-1.6c1.9-0.4,3.9,0.2,5.3,1.6c0.6,0.5,1.1,1.3,1.2,2.2c0.3,1.6-1.1,3.1-1.9,4.9c-2.7,4.8-6.6,8.7-11.3,11.7
			c-0.9,0.6-1.9,0.9-3,1c-0.3,0-0.3,0-0.5-0.1c2.1,2.6,3.9,5.3,5.6,8.2c0.3-0.3,16.5-10.1,16.5-10.1S232.8,241,229.1,243.6z
			 M208.8,255.7c0-0.2,0-0.2-0.3,0c-2.1,1.3-4,2.8-5.8,4.3c-1.3,1-2.4,2.3-3.1,3.8c-0.6,0.9-0.9,1.9-0.8,2.9c0,0.8,0.3,1.4,0.9,1.9
			c0.2,0.3,0.6,0.4,1,0.3c0.9-0.2,1.7-0.6,2.4-1.2c0.9-0.8,1.6-1.6,2.4-2.6c1.4-2.2,2.5-4.5,3.1-7
			C208.6,257.4,208.7,256.5,208.8,255.7L208.8,255.7z M215.7,224.7L215.7,224.7c-0.3,0.1-0.4,0.3-0.6,0.3c-3,2.1-5.6,4.5-7.9,7.3
			c-0.6,0.9-1.2,1.8-1.5,2.8C209.7,232.5,213.1,228.9,215.7,224.7L215.7,224.7z"/>
	</g>
</g>
<path class="st0" d="M109.5,16.9c-7.6,9.7-10.1,20-7.3,29.5c3.2,11,12.7,18.9,20.2,21.6c6,2.2,9.9,7.3,10.5,14.3
	c0.4,5.3-1.1,10.5-4.1,13.6c4.5-1.4,8.7-3.6,12.5-6.3c7.6-5.5,17.6-16.5,22.5-37.5c2.9-12.5,0.8-24.2-6.2-32.9
	c-6.4-8-16-12.6-26.1-12.7C122.9,6.3,114.8,10.2,109.5,16.9z M109.5,39.3c0-13,10.5-23.4,23.4-23.4s23.4,10.5,23.4,23.4
	s-10.5,23.4-23.4,23.4l0,0l0,0C120,62.7,109.5,52.3,109.5,39.3z M109.5,39.3c0-13,10.5-23.4,23.4-23.4"/>
<path class="st2" d="M133,17.3c12.2,0,22,9.8,22,22s-9.8,22-22,22c-12.2,0-22-9.8-22.1-22l0,0l0,0C110.9,27.1,120.8,17.3,133,17.3z"
	/>
<path class="st3" d="M127.4,57c12.2,0,22-9.9,22-22c0-5.5-2.1-10.7-5.7-14.8c10.6,5.9,14.4,19.4,8.4,30s-19.4,14.4-30,8.4
	c-2.1-1.2-3.9-2.7-5.5-4.4C120,56,123.6,57,127.4,57z"/>
<path class="st4" d="M138.3,86.5c1.2-1.5,2.3-3,3.2-4.6c4.9-8,7.8-17.1,8.4-26.5c9-9.4,8.6-24.2-0.8-33.1c-2.8-2.7-6.2-4.6-9.9-5.6
	c-0.4-0.5-0.8-1.2-1.2-1.7c-2.3-3.2-5.1-6.2-8.3-8.5c0.5,0,1,0,1.5,0c10.1,0.1,19.8,4.8,26.1,12.7c6.9,8.6,9.1,20.4,6.2,32.9
	c-4.9,20.9-14.9,32-22.5,37.5c-3.8,2.8-8,4.9-12.5,6.3l0.3-0.3C132.6,93,135.7,89.9,138.3,86.5z"/>
<path class="st2" d="M132.8,82.3c-0.6-6.9-4.4-12.1-10.5-14.3c-7.4-2.7-17-10.6-20.2-21.6c-2.8-9.5-0.2-19.8,7.3-29.5
	c3.5-4.5,8.3-7.8,13.8-9.4c-6.7,3.5-15.7,10.1-18.8,22c-5.3,20,5.3,28.5,12.1,33c7.1,4.6,14,6.8,16.5,12.1c2.5,5.3,4.9,15-4.4,21.2
	C131.6,92.8,133.2,87.6,132.8,82.3z"/>
<path class="st1" d="M126.3,99.3c-0.4,0-0.8-0.3-0.8-0.8l0,0c0-0.3,0.2-0.5,0.4-0.6c4-2.4,6.4-8.2,5.8-14.5
	c-0.5-6.5-4.1-11.2-9.7-13.3c-8-2.8-17.9-11.1-21.4-22.9c-2.9-10.1-0.2-20.9,7.8-31.2c5.6-7.2,14.3-11.3,23.3-11.2
	c10.8,0.1,20.9,5.1,27.6,13.5c7.2,9.2,9.6,21.4,6.6,34.5c-5.1,21.8-15.5,33.1-23.4,38.9c-8.6,6.3-15.9,7.2-16.2,7.3L126.3,99.3z
	 M109.6,17.1c-7.7,9.8-10.4,20.2-7.4,29.9c3.2,11.2,12.8,19.2,20.5,21.9c6.2,2.2,10,7.4,10.7,14.5c0.4,5.4-1.1,10.6-4.1,13.8
	c4.5-1.4,8.9-3.6,12.6-6.4c7.7-5.6,17.8-16.7,22.8-38c2.9-12.7,0.8-24.6-6.3-33.4c-6.4-8.1-16.2-12.8-26.5-13
	C123.2,6.3,115,10.3,109.6,17.1z"/>
<path class="st1" d="M108.4,39.3c0-13,10.5-23.4,23.4-23.4c13,0,23.4,10.5,23.4,23.4s-10.5,23.4-23.4,23.4
	C119,62.8,108.4,52.3,108.4,39.3L108.4,39.3z M109.8,39.3c0,12.2,9.8,22,22,22s22-9.8,22-22s-9.8-22-22-22l0,0l0,0
	C119.7,17.3,109.8,27.1,109.8,39.3z"/>
</svg>
