<svg id="Layer_1" data-name="Layer 1" xmlns="http://www.w3.org/2000/svg" viewBox="0 0 233.1 259.52"><defs><style>.cls-1{isolation:isolate;}.cls-2{fill:#8fc63e;}.cls-3{fill:#333;}.cls-4{fill:#fff;}.cls-5{fill:#d1d1cc;}.cls-6{fill:#78a733;}</style></defs><title>logo</title><g class="cls-1"><g class="cls-1"><path class="cls-2" d="M19.62,195.29H7.2V103H19.62v41.11h8.89V103H40.93v92.32H28.51V154.08H19.62Z" transform="translate(-4.54 0)"/><path class="cls-2" d="M66,195.29H53.56V103H66Z" transform="translate(-4.54 0)"/><path class="cls-2" d="M95.27,195.29H78.6V103H95.27c6,0,8.89.81,12.12,3.44a11.79,11.79,0,0,1,4.74,9.69v66a11.76,11.76,0,0,1-4.74,9.6C104.16,194.17,100.72,195.29,95.27,195.29Zm-4.14-8.79h4.14a5.24,5.24,0,0,0,3-1,2.59,2.59,0,0,0,1.11-2.22V114.89a2.56,2.56,0,0,0-1.11-2.22,4.57,4.57,0,0,0-3-1H91.13Z" transform="translate(-4.54 0)"/><path class="cls-2" d="M138.9,195.29H122.23V103H138.9c6,0,8.89.81,12.12,3.44a11.8,11.8,0,0,1,4.75,9.69v66a11.77,11.77,0,0,1-4.75,9.6C147.79,194.17,144.35,195.29,138.9,195.29Zm-4.14-8.79h4.14a5.24,5.24,0,0,0,3-1,2.56,2.56,0,0,0,1.11-2.22V114.89a2.54,2.54,0,0,0-1.11-2.22,4.57,4.57,0,0,0-3-1h-4.14Z" transform="translate(-4.54 0)"/><path class="cls-2" d="M191.62,195.29H166.88V103h24.74v10.1H179.3v31.11h8.18v10.1H179.3v31h12.32Z" transform="translate(-4.54 0)"/><path class="cls-2" d="M237.17,195.29H224.75l-8.18-40.51v40.51H204.14V103h12.43l8.18,40V103h12.42Z" transform="translate(-4.54 0)"/></g></g><g class="cls-1"><g class="cls-1"><path class="cls-3" d="M25.65,143.79v-40.7H38.88V195.4H25.65V154.7H18v40.7H4.54V103.09H18v40.7Zm1.12-39.69v40.7H17V104.1H5.66v90.29H17v-40.7h9.8v40.7H38.08V104.1Z" transform="translate(-4.54 0)"/><path class="cls-3" d="M51.51,195.4V103.09H64.74V195.4Zm.91-91.3v90.29H63.83V104.1Z" transform="translate(-4.54 0)"/><path class="cls-3" d="M106.65,106.62a12.14,12.14,0,0,1,4.85,10v65.25a12.05,12.05,0,0,1-4.74,9.79,17,17,0,0,1-5.46,2.88,23.91,23.91,0,0,1-6.87.86H77.36V103.09H94.43a26.64,26.64,0,0,1,7.07.75A14.9,14.9,0,0,1,106.65,106.62Zm3.94,10a14.37,14.37,0,0,0-.85-4.55,10.62,10.62,0,0,0-3.69-4.74,14,14,0,0,0-4.85-2.53,26.09,26.09,0,0,0-6.77-.7H78.38v90.29H94.43a23.3,23.3,0,0,0,6.57-.81,15.43,15.43,0,0,0,5.15-2.72,11,11,0,0,0,4.44-9Zm-13-3.84a3.2,3.2,0,0,1,1.3,2.63V183a3.19,3.19,0,0,1-1.3,2.62,5,5,0,0,1-3.2,1.11H89.79V111.77h4.59A5.08,5.08,0,0,1,97.58,112.78Zm.49,2.63a2.34,2.34,0,0,0-1-1.82,4,4,0,0,0-2.63-.91H90.8v73h3.63a4.41,4.41,0,0,0,2.63-.8,2.41,2.41,0,0,0,1-1.92Z" transform="translate(-4.54 0)"/><path class="cls-3" d="M150.89,106.62a12.16,12.16,0,0,1,4.85,10v65.25a12,12,0,0,1-4.75,9.79,17,17,0,0,1-5.45,2.88,24,24,0,0,1-6.87.86H121.6V103.09h17.07a26.69,26.69,0,0,1,7.07.75A14.9,14.9,0,0,1,150.89,106.62Zm3.94,10a14.4,14.4,0,0,0-.86-4.55,10.52,10.52,0,0,0-3.68-4.74,14,14,0,0,0-4.85-2.53,26.14,26.14,0,0,0-6.77-.7H122.61v90.29h16.06a23.3,23.3,0,0,0,6.57-.81,15.53,15.53,0,0,0,5.15-2.72,11,11,0,0,0,4.44-9Zm-13-3.84a3.2,3.2,0,0,1,1.3,2.63V183a3.19,3.19,0,0,1-1.3,2.62,5,5,0,0,1-3.2,1.11H134V111.77h4.59A5.1,5.1,0,0,1,141.82,112.78Zm.49,2.63a2.34,2.34,0,0,0-1-1.82,4,4,0,0,0-2.63-.91H135v73h3.63a4.43,4.43,0,0,0,2.63-.8,2.41,2.41,0,0,0,1-1.92Z" transform="translate(-4.54 0)"/><path class="cls-3" d="M166.85,103.09H192.3V114H180.08v29.8h7.27V154.7h-7.27v29.79H192.3V195.4H166.85Zm1,91.3h23.53v-9H179.17V153.79h7.27v-9h-7.27V113.08h12.22v-9H167.86Z" transform="translate(-4.54 0)"/><path class="cls-3" d="M224.42,138.44V103.09h13.23V195.4H224.52l-.1-.4-7.17-35.35V195.4H204V103.09h13.13Zm1-34.34v43.83l-9.09-43.83H204.92v90.29h11.42V150.15l9,44.24h11.41V104.1Z" transform="translate(-4.54 0)"/></g></g><g class="cls-1"><g class="cls-1"><path class="cls-3" d="M74.89,220.79a86.9,86.9,0,0,1-11.81,4.84,68.9,68.9,0,0,1-4.76,7.4,15.68,15.68,0,0,1-4.51,4,4.89,4.89,0,0,1-3.06.93,5.53,5.53,0,0,1-3.91-1.7,2.44,2.44,0,0,1-.76-1.79,10.62,10.62,0,0,1,2.21-7A7.71,7.71,0,0,1,51.94,225l1.53-.51c.17,0,1.62-.51,3.83-1.28.42-.17.85-.34,1.36-.59a.28.28,0,0,0,.25-.26,27.71,27.71,0,0,0,3-7.56,13.1,13.1,0,0,0,.25-2c.09-.17,0-.25,0-.51-.42.17-.85.34-1.19.51a22.39,22.39,0,0,0-3.65,2.21,48.47,48.47,0,0,0-5.36,4.85,86.3,86.3,0,0,0-13.6,18.45,50.36,50.36,0,0,0-4.25,9.86,45,45,0,0,0-1.1,4.59c-.43,1.78-.77,3.57-1.19,5.35a1.23,1.23,0,0,1-.77.94,5.14,5.14,0,0,1-3.74.08c-.08-.08-.17-.17-.25-.17-.35-.25-.52-.51-.43-.85a23.08,23.08,0,0,1,.34-2.46,78.12,78.12,0,0,1,2-8.59c.67-2.55,1.27-5.18,1.95-7.82a114,114,0,0,1,6.8-18.61,118.53,118.53,0,0,1,6.21-12.33,26.85,26.85,0,0,1,1.87-2.81c.34-.51.68-.59,1.36-.42a5.34,5.34,0,0,1,1.19.68,3.64,3.64,0,0,1,1.44,1.78,1.33,1.33,0,0,1-.25,1.36,14.89,14.89,0,0,0-2,3.06c-2,3.66-3.65,7.4-5.35,11.22v.17c.42-.59.85-1.1,1.27-1.7a71.57,71.57,0,0,1,8.67-8.84,28,28,0,0,1,4.85-3.4,9.1,9.1,0,0,1,3.06-.93,5.26,5.26,0,0,1,3.82,1.36,6.36,6.36,0,0,1,2.38,4.84,17.13,17.13,0,0,1-.85,5.7A74.92,74.92,0,0,0,75,215.52S78,219.09,74.89,220.79Zm-19.12,7.06h-.09a5.79,5.79,0,0,0-2.63,1.53,13.16,13.16,0,0,0-1.53,2.89c-.09.42-.17.85-.26,1.27A26.73,26.73,0,0,0,55.77,227.85Z" transform="translate(-4.54 0)"/><path class="cls-3" d="M103.62,221.55c-4.33,5.27-22.44,23.13-29,23a23.84,23.84,0,0,1-3.32-.77A4.23,4.23,0,0,1,69,240.6a17.07,17.07,0,0,1,.09-4.68,85.63,85.63,0,0,1,2.55-10.12c1.11-3.82,2.38-7.56,3.74-11.3,1.53-4,3.32-7.82,5.19-11.65,2.21-4.84,4.76-9.6,7.22-14.36,1.19-2.3,2.47-4.51,3.83-6.72a4.91,4.91,0,0,0,.34-.59.63.63,0,0,1,.59-.34c.34.08.6.08.85.17a4.58,4.58,0,0,1,2.47,2.72,2,2,0,0,1-.17,1.53c-.68,1.1-1.45,2.21-2,3.4l-3.06,5.86c-2.55,4.85-4.76,9.86-7.14,14.79a127.85,127.85,0,0,0-6.38,17.26,76.34,76.34,0,0,0-2.21,8.25,25.3,25.3,0,0,0-.25,6.46s20.91-17.52,27.54-25.76C102.18,215.52,107.28,217.13,103.62,221.55Z" transform="translate(-4.54 0)"/><path class="cls-3" d="M135.67,219.51c-.68.86-12,13.52-13.18,14.37a5.83,5.83,0,0,1-5,.68,5.76,5.76,0,0,1-2.21-1,5.08,5.08,0,0,1-1.7-3.66v-2.2l-.17.17a31.63,31.63,0,0,1-5.19,4.25,8.18,8.18,0,0,1-3,1.19,6.57,6.57,0,0,1-5.61-1.87,4.25,4.25,0,0,1-1.19-3.06A16.15,16.15,0,0,1,99.2,223,41.7,41.7,0,0,1,104,212.12a12,12,0,0,1,2.47-3,3.33,3.33,0,0,1,3.91-.25,11.9,11.9,0,0,1,3.66,3.23,13.06,13.06,0,0,1,1.87,3.31c.08,0,.08.09.08.17.34-.51.68-.93.94-1.36,1.61-2.38,3.14-4.76,4.76-7.14a1.13,1.13,0,0,1,1.19-.42,4.85,4.85,0,0,1,2.46,1.44,2.82,2.82,0,0,1,.85,1.36,1.05,1.05,0,0,1-.25,1,78.7,78.7,0,0,0-5.19,10.71,24.94,24.94,0,0,0-1.78,7.4,19.57,19.57,0,0,0-.09,2.29l15-15.38S137.11,217.3,135.67,219.51ZM115.1,217c-.34-.17-.77-.34-1.11-.51a5.89,5.89,0,0,1-2.21-2.55l-.76-1.27c-.09,0-.17.08-.26.08a1.7,1.7,0,0,1-.42.26,12.73,12.73,0,0,0-2.13,2.63,40.1,40.1,0,0,0-3.83,9,20.57,20.57,0,0,0-.76,4.42c0,.25.09.42.09.76.33-.26.76-.51,1-.68a36.91,36.91,0,0,0,4.08-3.91,64.52,64.52,0,0,0,5.52-7.23Z" transform="translate(-4.54 0)"/><path class="cls-3" d="M160.57,219.77c-1.61,2.21-6,5.86-7.39,7a38.84,38.84,0,0,1-8.17,5.1,12.71,12.71,0,0,1-6.12,1.19,9.37,9.37,0,0,1-6.46-3,7.16,7.16,0,0,1-1.78-5.18,16.86,16.86,0,0,1,1.95-7.06,25,25,0,0,1,6-7.9,12.39,12.39,0,0,1,5.53-2.89,6.2,6.2,0,0,1,3.74,0,6.29,6.29,0,0,1,3.91,4.25,5.17,5.17,0,0,1-.34,3.4,18.43,18.43,0,0,1-2.21,3.74,1.16,1.16,0,0,1-1.53.42,4.72,4.72,0,0,1-1.87-1.36,3.4,3.4,0,0,1-.94-1.61.82.82,0,0,1,.26-.94,20.42,20.42,0,0,0,2-3.31,1.47,1.47,0,0,0,.26-.51c-.34.08-.6.17-.85.25a13,13,0,0,0-4.67,3.06,21.52,21.52,0,0,0-5.45,8.42,13.4,13.4,0,0,0-.59,4.5,4.55,4.55,0,0,0,.76,2.13,1.07,1.07,0,0,0,.94.51,12.24,12.24,0,0,0,3.31-.85,23.65,23.65,0,0,0,6.46-3.49l12.84-10.11A2.9,2.9,0,0,1,160.57,219.77Z" transform="translate(-4.54 0)"/><path class="cls-3" d="M187.6,220.45c-1.87,2.21-6.2,6.29-6.2,6.29l-3.07,2.72a28.93,28.93,0,0,1-6.88,4.33,7.89,7.89,0,0,1-3.66.85,9.49,9.49,0,0,1-4-1.27,9.72,9.72,0,0,1-4.08-4.59,15,15,0,0,1-1.36-6.38,14.22,14.22,0,0,1,2.8-8.58,19.65,19.65,0,0,1,7.06-5.61,18.47,18.47,0,0,1,5.27-1.87,5.8,5.8,0,0,1,6.12,2.46,3.36,3.36,0,0,1,.43,3.74,12.13,12.13,0,0,1-2,2.72,25.4,25.4,0,0,1-4.76,4.34,8.15,8.15,0,0,1-2.38,1.44,4.58,4.58,0,0,1-3.91-.16c-1.87-1.37-1.62-2.3-2-2.9a13.05,13.05,0,0,0-1.79,5.1,12,12,0,0,0,.85,5.45,7.19,7.19,0,0,0,1.7,2.72.5.5,0,0,0,.6.08,15.71,15.71,0,0,0,3.91-2A58.16,58.16,0,0,0,175.7,225c.51-.51,1.87-1.71,2.38-2.13l7.91-7.31S189.56,218,187.6,220.45Zm-22.36-3h1.45a6.68,6.68,0,0,0,2.8-1.44,28.4,28.4,0,0,0,4.85-4.76l.25-.26c0-.08,0-.08-.08-.08-.34.17-.77.25-1.11.42a25,25,0,0,0-6,3.66A19.57,19.57,0,0,0,165.24,217.47Z" transform="translate(-4.54 0)"/><path class="cls-3" d="M211.74,221c-3.32,2.47-13.94,8.42-13.94,8.42a18.48,18.48,0,0,1,.42,4.84,15.4,15.4,0,0,1-1.44,5,18,18,0,0,1-3.4,4.68,11,11,0,0,1-6.89,3.14,8.92,8.92,0,0,1-5.18-.68,5,5,0,0,1-3.15-3.48,6.2,6.2,0,0,1,.6-4.25,13.82,13.82,0,0,1,3-3.74,38.15,38.15,0,0,1,4.85-4.09c1.7-1.19,3.57-2.37,5.35-3.57.26-.17.26-.08.17-.42a15.33,15.33,0,0,0-2.29-4.76c-.85-1.36-2.13-2.3-3.06-3.66a12.39,12.39,0,0,1-2-4,6.61,6.61,0,0,1,.51-4.17,17.52,17.52,0,0,1,2.81-4.25,33.54,33.54,0,0,1,8.33-6.8,12.84,12.84,0,0,1,3.82-1.53,5.06,5.06,0,0,1,4.85,1.53,3.41,3.41,0,0,1,1.1,2c.26,1.53-1,2.89-1.78,4.51a39,39,0,0,1-7.23,8.5,36.19,36.19,0,0,1-3.23,2.29,5.07,5.07,0,0,1-2.8.85c-.34,0-.34,0-.51-.08a65.7,65.7,0,0,1,5.18,7.57c.34-.26,15.3-9.44,15.3-9.44S215.05,218.58,211.74,221Zm-18.87,11.14c0-.25,0-.17-.26,0a64,64,0,0,0-5.44,4,9.44,9.44,0,0,0-2.89,3.48,3.92,3.92,0,0,0-.68,2.72,3.08,3.08,0,0,0,.77,1.79,1,1,0,0,0,.93.34,5.43,5.43,0,0,0,2.21-1.11,19,19,0,0,0,2.21-2.38,19.9,19.9,0,0,0,2.89-6.46C192.7,233.79,192.78,233,192.87,232.18Zm6.46-28.65h-.09c-.17.09-.34.26-.51.34a32.71,32.71,0,0,0-7.31,6.8,8,8,0,0,0-1.44,2.64A34.19,34.19,0,0,0,199.33,203.53Z" transform="translate(-4.54 0)"/></g></g><g class="cls-1"><g class="cls-1"><path class="cls-3" d="M75.81,220.79A87.33,87.33,0,0,1,64,225.63a66,66,0,0,1-4.76,7.4,15.64,15.64,0,0,1-4.5,4,4.91,4.91,0,0,1-3.06.93,5.53,5.53,0,0,1-3.91-1.7,2.45,2.45,0,0,1-.77-1.79,10.68,10.68,0,0,1,2.21-7A7.74,7.74,0,0,1,52.86,225l1.53-.51c.17,0,1.61-.51,3.82-1.28.43-.17.85-.34,1.36-.59a.28.28,0,0,0,.26-.26,27.37,27.37,0,0,0,3-7.56,14.51,14.51,0,0,0,.26-2c.08-.17,0-.25,0-.51-.43.17-.85.34-1.19.51a22.93,22.93,0,0,0-3.66,2.21,49.29,49.29,0,0,0-5.35,4.85,86,86,0,0,0-13.6,18.45A49.76,49.76,0,0,0,35,248.25a45,45,0,0,0-1.11,4.59c-.42,1.78-.76,3.57-1.19,5.35a1.22,1.22,0,0,1-.76.94,5.14,5.14,0,0,1-3.74.08c-.09-.08-.17-.17-.26-.17-.34-.25-.51-.51-.42-.85a23.08,23.08,0,0,1,.34-2.46,78.06,78.06,0,0,1,1.95-8.59c.68-2.55,1.28-5.18,2-7.82a113.1,113.1,0,0,1,6.8-18.61,118.44,118.44,0,0,1,6.2-12.33,26.85,26.85,0,0,1,1.87-2.81c.34-.51.68-.59,1.36-.42a5.12,5.12,0,0,1,1.19.68,3.72,3.72,0,0,1,1.45,1.78,1.33,1.33,0,0,1-.26,1.36,14.43,14.43,0,0,0-2,3.06c-2,3.66-3.66,7.4-5.36,11.22v.17c.43-.59.85-1.1,1.28-1.7A70.87,70.87,0,0,1,53,212.88a28.26,28.26,0,0,1,4.84-3.4,9.24,9.24,0,0,1,3.06-.93,5.28,5.28,0,0,1,3.83,1.36,6.39,6.39,0,0,1,2.38,4.84,17.13,17.13,0,0,1-.85,5.7,75.57,75.57,0,0,0,9.61-4.93S78.87,219.09,75.81,220.79Zm-19.13,7.06H56.6A5.82,5.82,0,0,0,54,229.38a13.6,13.6,0,0,0-1.53,2.89c-.08.42-.17.85-.25,1.27A26.68,26.68,0,0,0,56.68,227.85Z" transform="translate(-4.54 0)"/><path class="cls-3" d="M104.54,221.55c-4.34,5.27-22.44,23.13-29,23a23.46,23.46,0,0,1-3.31-.77,4.21,4.21,0,0,1-2.3-3.14,17.07,17.07,0,0,1,.09-4.68,83.72,83.72,0,0,1,2.55-10.12c1.1-3.82,2.38-7.56,3.74-11.3,1.53-4,3.31-7.82,5.18-11.65,2.21-4.84,4.76-9.6,7.23-14.36,1.19-2.3,2.46-4.51,3.82-6.72a3.17,3.17,0,0,0,.34-.59.64.64,0,0,1,.6-.34c.34.08.59.08.85.17a4.53,4.53,0,0,1,2.46,2.72,1.93,1.93,0,0,1-.17,1.53c-.68,1.1-1.44,2.21-2,3.4l-3.06,5.86c-2.55,4.85-4.76,9.86-7.14,14.79A127.8,127.8,0,0,0,78,226.57a72,72,0,0,0-2.21,8.25,26.12,26.12,0,0,0-.26,6.46s20.91-17.52,27.54-25.76C103.09,215.52,108.19,217.13,104.54,221.55Z" transform="translate(-4.54 0)"/><path class="cls-3" d="M136.58,219.51c-.68.86-12,13.52-13.17,14.37a6.74,6.74,0,0,1-7.23-.34,5.15,5.15,0,0,1-1.7-3.66v-2.2l-.17.17a31.14,31.14,0,0,1-5.18,4.25,8.25,8.25,0,0,1-3,1.19,6.57,6.57,0,0,1-5.61-1.87,4.25,4.25,0,0,1-1.19-3.06,16.15,16.15,0,0,1,.77-5.36A41.7,41.7,0,0,1,105,212.12a11.76,11.76,0,0,1,2.47-3,3.33,3.33,0,0,1,3.91-.25,12,12,0,0,1,3.65,3.23,12.48,12.48,0,0,1,1.87,3.31c.09,0,.09.09.09.17.34-.51.68-.93.93-1.36,1.62-2.38,3.15-4.76,4.76-7.14a1.14,1.14,0,0,1,1.19-.42,4.92,4.92,0,0,1,2.47,1.44,2.89,2.89,0,0,1,.85,1.36,1.05,1.05,0,0,1-.26,1,77.48,77.48,0,0,0-5.18,10.71,24.66,24.66,0,0,0-1.79,7.4,22,22,0,0,0-.08,2.29l15-15.38S138,217.3,136.58,219.51ZM116,217c-.34-.17-.76-.34-1.1-.51a5.82,5.82,0,0,1-2.21-2.55l-.77-1.27c-.08,0-.17.08-.25.08a2,2,0,0,1-.43.26,12.36,12.36,0,0,0-2.12,2.63,39.65,39.65,0,0,0-3.83,9,20,20,0,0,0-.76,4.42c0,.25.08.42.08.76.34-.26.77-.51,1-.68a35.23,35.23,0,0,0,4.08-3.91,64.61,64.61,0,0,0,5.53-7.23Z" transform="translate(-4.54 0)"/><path class="cls-3" d="M161.49,219.77c-1.62,2.21-6,5.86-7.4,7a38.51,38.51,0,0,1-8.16,5.1,12.71,12.71,0,0,1-6.12,1.19,9.37,9.37,0,0,1-6.46-3,7.17,7.17,0,0,1-1.79-5.18,16.87,16.87,0,0,1,2-7.06,24.69,24.69,0,0,1,5.95-7.9A12.34,12.34,0,0,1,145,207a6.2,6.2,0,0,1,3.74,0,6.31,6.31,0,0,1,3.91,4.25,5.24,5.24,0,0,1-.34,3.4,18.43,18.43,0,0,1-2.21,3.74,1.16,1.16,0,0,1-1.53.42,4.65,4.65,0,0,1-1.87-1.36,3.32,3.32,0,0,1-.94-1.61.82.82,0,0,1,.26-.94,21.18,21.18,0,0,0,1.95-3.31,1.47,1.47,0,0,0,.26-.51c-.34.08-.6.17-.85.25a13.11,13.11,0,0,0-4.68,3.06,21.61,21.61,0,0,0-5.44,8.42,13.15,13.15,0,0,0-.59,4.5,4.44,4.44,0,0,0,.76,2.13,1.07,1.07,0,0,0,.94.51,12.24,12.24,0,0,0,3.31-.85,23.79,23.79,0,0,0,6.46-3.49L161,215.52A2.9,2.9,0,0,1,161.49,219.77Z" transform="translate(-4.54 0)"/><path class="cls-3" d="M188.52,220.45c-1.87,2.21-6.21,6.29-6.21,6.29l-3.06,2.72a28.93,28.93,0,0,1-6.88,4.33,7.89,7.89,0,0,1-3.66.85,9.58,9.58,0,0,1-4-1.27,9.72,9.72,0,0,1-4.08-4.59,15.31,15.31,0,0,1-1.36-6.38,14.22,14.22,0,0,1,2.81-8.58,19.7,19.7,0,0,1,7-5.61,18.64,18.64,0,0,1,5.28-1.87,5.8,5.8,0,0,1,6.12,2.46,3.34,3.34,0,0,1,.42,3.74,12.41,12.41,0,0,1-1.95,2.72,25.71,25.71,0,0,1-4.76,4.34,8.15,8.15,0,0,1-2.38,1.44,4.58,4.58,0,0,1-3.91-.16c-1.87-1.37-1.62-2.3-2-2.9a13.2,13.2,0,0,0-1.78,5.1,12,12,0,0,0,.85,5.45,7.06,7.06,0,0,0,1.7,2.72.5.5,0,0,0,.6.08,15.71,15.71,0,0,0,3.91-2,58.16,58.16,0,0,0,5.44-4.42c.51-.51,1.87-1.71,2.38-2.13l7.9-7.31S190.47,218,188.52,220.45Zm-22.36-3h1.45a6.74,6.74,0,0,0,2.8-1.44,28.4,28.4,0,0,0,4.85-4.76l.25-.26c0-.08,0-.08-.08-.08-.34.17-.77.25-1.11.42a25,25,0,0,0-5.95,3.66A19.57,19.57,0,0,0,166.16,217.47Z" transform="translate(-4.54 0)"/><path class="cls-3" d="M212.66,221c-3.32,2.47-13.95,8.42-13.95,8.42a18.93,18.93,0,0,1,.43,4.84,15.4,15.4,0,0,1-1.44,5,18,18,0,0,1-3.41,4.68,11,11,0,0,1-6.88,3.14,9,9,0,0,1-5.19-.68,5,5,0,0,1-3.14-3.48,6.19,6.19,0,0,1,.59-4.25,14,14,0,0,1,3-3.74,37.37,37.37,0,0,1,4.84-4.09c1.7-1.19,3.57-2.37,5.36-3.57.25-.17.25-.08.17-.42a15.35,15.35,0,0,0-2.3-4.76c-.85-1.36-2.12-2.3-3.06-3.66a12.58,12.58,0,0,1-1.95-4,6.54,6.54,0,0,1,.51-4.17,17.77,17.77,0,0,1,2.8-4.25,33.76,33.76,0,0,1,8.34-6.8,12.73,12.73,0,0,1,3.82-1.53,5.07,5.07,0,0,1,4.85,1.53,3.47,3.47,0,0,1,1.1,2c.26,1.53-1,2.89-1.78,4.51a30.46,30.46,0,0,1-10.46,10.79,5.08,5.08,0,0,1-2.81.85c-.34,0-.34,0-.51-.08a65.77,65.77,0,0,1,5.19,7.57c.34-.26,15.3-9.44,15.3-9.44S216,218.58,212.66,221Zm-18.87,11.14c0-.25,0-.17-.26,0a64,64,0,0,0-5.44,4,9.25,9.25,0,0,0-2.89,3.48,3.82,3.82,0,0,0-.68,2.72,3,3,0,0,0,.76,1.79,1,1,0,0,0,.94.34,5.43,5.43,0,0,0,2.21-1.11,19,19,0,0,0,2.21-2.38,20.11,20.11,0,0,0,2.89-6.46C193.61,233.79,193.7,233,193.79,232.18Zm6.46-28.65h-.09c-.17.09-.34.26-.51.34a32.28,32.28,0,0,0-7.31,6.8,8,8,0,0,0-1.45,2.64A34.09,34.09,0,0,0,200.25,203.53Z" transform="translate(-4.54 0)"/></g></g><path class="cls-2" d="M101.83,11c-7,9-9.42,18.46-6.85,27.3,3,10.23,11.78,17.54,18.71,20,5.62,2,9.16,6.81,9.73,13.22.44,4.91-1,9.68-3.75,12.61a38.74,38.74,0,0,0,11.56-5.84c7-5.1,16.3-15.27,20.81-34.71,2.69-11.61.66-22.44-5.74-30.48A31.19,31.19,0,0,0,122.11,1.3,25.18,25.18,0,0,0,101.83,11Zm0,20.75a21.73,21.73,0,1,1,21.73,21.73h0a21.74,21.74,0,0,1-21.73-21.73Zm0,0a21.76,21.76,0,0,1,21.73-21.73" transform="translate(-4.54 0)"/><path class="cls-4" d="M123.59,11.35a20.44,20.44,0,1,1-20.43,20.43h0A20.45,20.45,0,0,1,123.59,11.35Z" transform="translate(-4.54 0)"/><path class="cls-5" d="M118.44,48.11A20.42,20.42,0,0,0,133.58,14a20.42,20.42,0,1,1-25.13,31.52A20.33,20.33,0,0,0,118.44,48.11Z" transform="translate(-4.54 0)"/><path class="cls-6" d="M128.54,75.5a49.8,49.8,0,0,0,3-4.26,54.18,54.18,0,0,0,7.81-24.49,21.7,21.7,0,0,0-9.85-35.89c-.36-.53-.74-1.06-1.12-1.59a36.06,36.06,0,0,0-7.66-7.94c.48,0,.95,0,1.43,0A31.23,31.23,0,0,1,146.3,13.13c6.39,8,8.43,18.87,5.74,30.48-4.51,19.44-13.8,29.6-20.81,34.71a38.72,38.72,0,0,1-11.56,5.83l.31-.35A43.72,43.72,0,0,0,128.54,75.5Z" transform="translate(-4.54 0)"/><path class="cls-4" d="M123.42,71.55c-.57-6.4-4.12-11.22-9.73-13.21C106.76,55.87,98,48.57,95,38.34c-2.57-8.85-.2-18.29,6.85-27.3a24.81,24.81,0,0,1,12.83-8.7c-6.19,3.19-14.48,9.37-17.41,20.4-4.9,18.45,4.9,26.43,11.24,30.56,6.63,4.32,13,6.34,15.28,11.24s4.49,13.9-4.1,19.63C122.37,81.24,123.86,76.47,123.42,71.55Z" transform="translate(-4.54 0)"/><path class="cls-3" d="M117.05,86.1a.65.65,0,0,1-.65-.65.63.63,0,0,1,.39-.59c3.65-2.13,5.84-7.54,5.34-13.19-.52-5.88-3.76-10.29-8.88-12.11C106,57,96.84,49.37,93.73,38.7c-2.69-9.26-.24-19.1,7.08-28.47A26.44,26.44,0,0,1,122.11,0a32.5,32.5,0,0,1,25.2,12.33c6.65,8.36,8.78,19.57,6,31.58-4.61,19.87-14.16,30.28-21.37,35.51-7.84,5.69-14.51,6.64-14.79,6.67ZM101.83,11c-7,9-9.42,18.46-6.85,27.3,3,10.23,11.78,17.54,18.71,20,5.61,2,9.16,6.81,9.73,13.22.44,4.91-1,9.68-3.75,12.61a38.74,38.74,0,0,0,11.56-5.84c7-5.1,16.3-15.27,20.81-34.71,2.69-11.61.66-22.44-5.74-30.48A31.23,31.23,0,0,0,122.11,1.29,25.2,25.2,0,0,0,101.83,11Z" transform="translate(-4.54 0)"/><path class="cls-3" d="M101.86,31.78a21.73,21.73,0,1,1,21.73,21.74A21.73,21.73,0,0,1,101.86,31.78Zm1.3,0a20.44,20.44,0,1,0,20.43-20.43h0a20.45,20.45,0,0,0-20.43,20.43Z" transform="translate(-4.54 0)"/></svg>