<svg xmlns="http://www.w3.org/2000/svg" width="20.27" height="20.27" viewBox="0 0 20.27 20.27"><defs><style>.a{fill:#9bbd67;}</style></defs><path class="a" d="M8.789-.02a8.789,8.789,0,1,0,0,17.577,8.687,8.687,0,0,0,4.168-1.03,2.511,2.511,0,0,0,.326.326l2.511,2.511a2.561,2.561,0,1,0,3.616-3.616L16.9,13.238a2.511,2.511,0,0,0-.4-.326,8.67,8.67,0,0,0,1.1-4.168A8.8,8.8,0,0,0,8.814-.045Zm0,2.511a6.248,6.248,0,0,1,6.278,6.278,6.3,6.3,0,0,1-1.657,4.319l-.075.075a2.511,2.511,0,0,0-.326.326,6.283,6.283,0,0,1-4.244,1.582,6.278,6.278,0,0,1,0-12.555Z" transform="translate(0 0.045)"/></svg>