<svg xmlns="http://www.w3.org/2000/svg" width="212.001" height="106.001" viewBox="0 0 212.001 106.001"><defs><style>.a{fill:#fff;}.b,.c{stroke:none;}.c{fill:#78a733;}</style></defs><g class="a" transform="translate(4824 40)"><path class="b" d="M -4717.99951171875 64.71942901611328 L -4734.07080078125 26.80512046813965 L -4734.2001953125 26.50025177001953 L -4734.53125 26.50025177001953 L -4809.00048828125 26.50025177001953 C -4812.873046875 26.50025177001953 -4816.51416015625 24.99198913574219 -4819.2529296875 22.25333023071289 C -4821.9921875 19.5145149230957 -4823.50048828125 15.87317276000977 -4823.50048828125 12.00009346008301 L -4823.50048828125 -25.00022125244141 C -4823.50048828125 -28.87330055236816 -4821.9921875 -32.51464462280273 -4819.2529296875 -35.25343322753906 C -4816.51416015625 -37.99211502075195 -4812.873046875 -39.5003547668457 -4809.00048828125 -39.5003547668457 L -4627 -39.5003547668457 C -4623.12646484375 -39.5003547668457 -4619.4853515625 -37.99211502075195 -4616.74658203125 -35.25345993041992 C -4614.0078125 -32.51477432250977 -4612.49951171875 -28.87345886230469 -4612.49951171875 -25.00022125244141 L -4612.49951171875 12.00009346008301 C -4612.49951171875 15.87333106994629 -4614.0078125 19.51464653015137 -4616.74658203125 22.25333023071289 C -4619.4853515625 24.99198913574219 -4623.126953125 26.50025177001953 -4627 26.50025177001953 L -4701.46875 26.50025177001953 L -4701.7998046875 26.50025177001953 L -4701.92919921875 26.80512046813965 L -4717.99951171875 64.71942901611328 Z"/><path class="c" d="M -4717.99951171875 63.43823623657227 L -4702.3896484375 26.60998153686523 L -4702.130859375 26.00023078918457 L -4701.46875 26.00023078918457 L -4627 26.00023078918457 C -4623.26025390625 26.00023078918457 -4619.74462890625 24.54398155212402 -4617.10009765625 21.89975929260254 C -4614.45556640625 19.25553703308105 -4612.99951171875 15.73978710174561 -4612.99951171875 12.00012016296387 L -4612.99951171875 -25.00021362304688 C -4612.99951171875 -28.7398796081543 -4614.45556640625 -32.25565719604492 -4617.10009765625 -34.89987945556641 C -4619.74462890625 -37.54410171508789 -4623.26025390625 -39.00035095214844 -4627 -39.00035095214844 L -4809.00048828125 -39.00035095214844 C -4812.73974609375 -39.00035095214844 -4816.25537109375 -37.54410171508789 -4818.8994140625 -34.89987945556641 C -4821.5439453125 -32.25551986694336 -4823.00048828125 -28.7397403717041 -4823.00048828125 -25.00021362304688 L -4823.00048828125 12.00012016296387 C -4823.00048828125 15.73964786529541 -4821.5439453125 19.25539779663086 -4818.8994140625 21.89975929260254 C -4816.25537109375 24.54398155212402 -4812.73974609375 26.00023078918457 -4809.00048828125 26.00023078918457 L -4734.53125 26.00023078918457 L -4733.869140625 26.00023078918457 L -4733.6103515625 26.60995292663574 L -4717.99951171875 63.43823623657227 M -4717.99951171875 66.00059509277344 L -4734.53125 27.00023078918457 L -4809.00048828125 27.00023078918457 C -4817.28369140625 27.00023078918457 -4824.00048828125 20.28467559814453 -4824.00048828125 12.00012016296387 L -4824.00048828125 -25.00021362304688 C -4824.00048828125 -33.28479766845703 -4817.28369140625 -40.00035095214844 -4809.00048828125 -40.00035095214844 L -4627 -40.00035095214844 C -4618.71533203125 -40.00035095214844 -4611.99951171875 -33.28479766845703 -4611.99951171875 -25.00021362304688 L -4611.99951171875 12.00012016296387 C -4611.99951171875 20.28467559814453 -4618.71533203125 27.00023078918457 -4627 27.00023078918457 L -4701.46875 27.00023078918457 L -4717.99951171875 66.00059509277344 Z"/></g></svg>