<svg xmlns="http://www.w3.org/2000/svg" width="18.143" height="16.614" viewBox="0 0 18.143 16.614"><defs><style>.a{fill:#f3b249;}</style></defs><path class="a" d="M89.834,712.834l2,3.877a1.036,1.036,0,0,0,.782.544l4.47.622a.983.983,0,0,1,.575,1.7l-3.234,3.018a.968.968,0,0,0-.3.88l.763,4.261a1.029,1.029,0,0,1-1.506,1.048l-4-2.012a1.078,1.078,0,0,0-.966,0l-4,2.012a1.029,1.029,0,0,1-1.506-1.048l.763-4.261a.968.968,0,0,0-.3-.88l-3.234-3.018a.983.983,0,0,1,.575-1.7l4.47-.622a1.036,1.036,0,0,0,.782-.544l2-3.877A1.059,1.059,0,0,1,89.834,712.834Z" transform="translate(-79.832 -712.28)"/></svg>